<?xml version="1.0" encoding="utf-8"?>
<!-- Generator: Adobe Illustrator 27.5.0, SVG Export Plug-In . SVG Version: 6.00 Build 0)  -->
<svg version="1.1" xmlns="http://www.w3.org/2000/svg" xmlns:xlink="http://www.w3.org/1999/xlink" x="0px" y="0px"
	 viewBox="0 0 500 500" style="enable-background:new 0 0 500 500;" xml:space="preserve">
<g id="Background_Simple">
	<g>
		<path style="opacity:0.7;fill:#FFFFFF;" d="M67.931,167.086c0,0-27.877,71.988,11.297,144.503
			c39.174,72.516,119.879,110.802,184.469,143.548c64.59,32.746,131.661,16.799,163.534-36.838
			c31.873-53.637-11.845-91.928-11.897-168.418c-0.051-76.49,11.447-96.742-29.963-161.364
			c-41.41-64.623-143.059-78.925-219.9-30.996C88.631,105.45,67.931,167.086,67.931,167.086z"/>
	</g>
	<g>
		<path style="fill:#92E3A9;" d="M35.107,283.357c-4.385-20.579-3.177-42.343,5.788-64.505
			c11.551-28.557,36.366-48.846,64.171-60.686c40.407-17.206,80.073-17.533,112.917-51.248c10.13-10.399,18.633-22.31,28.98-32.494
			c30.52-30.041,75.192-26.394,108.548-2.575c69.586,49.69,94.614,148.102,90.745,229.464c-1.737,36.513-19.168,70.495-46.759,94.45
			c-62.401,54.181-168.357,45.067-240.026,16.786C106.025,391.458,47.658,342.259,35.107,283.357z"/>
		<path style="opacity:0.7;fill:#FFFFFF;" d="M35.107,283.357c-4.385-20.579-3.177-42.343,5.788-64.505
			c11.551-28.557,36.366-48.846,64.171-60.686c40.407-17.206,80.073-17.533,112.917-51.248c10.13-10.399,18.633-22.31,28.98-32.494
			c30.52-30.041,75.192-26.394,108.548-2.575c69.586,49.69,94.614,148.102,90.745,229.464c-1.737,36.513-19.168,70.495-46.759,94.45
			c-62.401,54.181-168.357,45.067-240.026,16.786C106.025,391.458,47.658,342.259,35.107,283.357z"/>
	</g>
</g>
<g id="Graphics">
	<g>
		<g>
			<g>
				<path style="fill:none;stroke:#263238;stroke-linecap:round;stroke-linejoin:round;stroke-miterlimit:10;" d="M297.51,397.8
					c0,4.23-1.04,8.21-2.88,11.7h-5.43c-0.16,0-0.32,0.02-0.48,0.05c-0.95,0.22-1.66,1.06-1.66,2.09v6.58
					c-4.14,3-9.24,4.77-14.74,4.77c-8.36,0-15.77-4.07-20.34-10.34c-3.05-4.16-4.85-9.3-4.85-14.85c0-13.91,11.28-25.19,25.19-25.19
					S297.51,383.89,297.51,397.8z"/>
				<path style="fill:none;stroke:#263238;stroke-linecap:round;stroke-linejoin:round;stroke-miterlimit:10;" d="M278.47,407.08
					c3.96,0.49,7.53,1.45,10.25,2.47c-0.95,0.22-1.66,1.06-1.66,2.09v6.58c-4.14,3-9.24,4.77-14.74,4.77
					c-8.36,0-15.77-4.07-20.34-10.34c0.14-0.25,0.29-0.5,0.45-0.75c0.94-1.53,6.61-3.97,14.65-4.84c0.59-1.19,0.6-2.75,0.46-4.04
					c-0.03-0.23-0.06-0.44-0.09-0.65c-0.52-0.49-0.93-0.98-1.11-1.39c-0.35-0.82-0.71-1.91-1.03-3.17
					c-0.01,0.33-0.06,0.58-0.16,0.68c-0.59,0.55-1.13-0.4-1.21-1.23c-0.08-0.84-1.11-2.28-1.35-3.1s0.28-1.73,0.71-2.05
					c0.17-0.11,0.39-0.06,0.61,0.06c-0.3-1.31-0.52-2.92-0.34-4.42c0.4-3.35,2.52-4.65,2.52-4.65s0.96-2.89,6.61-2.87
					c6.09,0.03,6.7,3.32,6.7,3.32s3.15,2.1,1.91,8.61c0.21-0.11,0.41-0.16,0.57-0.05c0.44,0.32,0.95,1.23,0.71,2.05
					c-0.23,0.82-1.27,2.26-1.35,3.1c-0.08,0.83-0.62,1.78-1.21,1.23c-0.06-0.06-0.09-0.17-0.12-0.31c-0.31,1.24-0.67,2.33-1.02,3.13
					c-0.2,0.48-0.66,1-1.25,1.5c-0.13,1.09-0.06,1.96,0.1,2.65C277.92,406.21,278.21,406.73,278.47,407.08z"/>
			</g>
			<g>
				<path style="fill:none;stroke:#263238;stroke-linecap:round;stroke-linejoin:round;stroke-miterlimit:10;" d="M297.206,421.786
					h-8.01c-1.182,0-2.14-0.958-2.14-2.14v-8.01c0-1.182,0.958-2.14,2.14-2.14h8.01c1.182,0,2.14,0.958,2.14,2.14v8.01
					C299.346,420.828,298.388,421.786,297.206,421.786z"/>
				<polygon style="fill:#263238;" points="296.256,414.944 293.898,414.944 293.898,412.585 292.504,412.585 292.504,414.944 
					290.145,414.944 290.145,416.338 292.504,416.338 292.504,418.697 293.898,418.697 293.898,416.338 296.256,416.338 				"/>
			</g>
		</g>
		<g>
			<g>
				<path style="fill:none;stroke:#263238;stroke-linecap:round;stroke-linejoin:round;stroke-miterlimit:10;" d="M140.49,195.09
					c0,5.87-1.45,11.4-4,16.26h-8.4c-1.18,0-2.14,0.96-2.14,2.14v10c-5.76,4.17-12.84,6.63-20.49,6.63
					c-11.62,0-21.92-5.66-28.29-14.38c-4.23-5.79-6.73-12.93-6.73-20.65c0-19.34,15.68-35.02,35.02-35.02
					S140.49,175.75,140.49,195.09z"/>
				<g>
					<path style="fill:none;stroke:#263238;stroke-linecap:round;stroke-linejoin:round;stroke-miterlimit:10;" d="M129.782,207.622
						l-42.165,8.206c-1.501,0.292-2.955-0.688-3.247-2.189l-5.416-27.83c-0.292-1.501,0.688-2.955,2.189-3.247l42.165-8.206
						c1.501-0.292,2.955,0.688,3.247,2.189l5.416,27.83C132.264,205.876,131.284,207.33,129.782,207.622z"/>
					<path style="fill:none;stroke:#263238;stroke-linecap:round;stroke-linejoin:round;stroke-miterlimit:10;" d="M79.16,186.87
						l22.802,12.417c2.802,1.526,6.293,0.846,8.318-1.619l16.481-20.062"/>
					
						<line style="fill:none;stroke:#263238;stroke-linecap:round;stroke-linejoin:round;stroke-miterlimit:10;" x1="87.856" y1="213.111" x2="101.963" y2="199.288"/>
					
						<line style="fill:none;stroke:#263238;stroke-linecap:round;stroke-linejoin:round;stroke-miterlimit:10;" x1="128.313" y1="205.238" x2="110.281" y2="197.669"/>
				</g>
			</g>
			<g>
				<path style="fill:none;stroke:#263238;stroke-linecap:round;stroke-linejoin:round;stroke-miterlimit:10;" d="M140.905,228.445
					h-12.81c-1.182,0-2.14-0.958-2.14-2.14v-12.81c0-1.182,0.958-2.14,2.14-2.14h12.81c1.182,0,2.14,0.958,2.14,2.14v12.81
					C143.045,227.487,142.087,228.445,140.905,228.445z"/>
				<polygon style="fill:#263238;" points="138.749,218.931 135.469,218.931 135.469,215.651 133.531,215.651 133.531,218.931 
					130.25,218.931 130.25,220.869 133.531,220.869 133.531,224.149 135.469,224.149 135.469,220.869 138.749,220.869 				"/>
			</g>
		</g>
		<g>
			<g>
				<g>
					<path style="fill:none;stroke:#263238;stroke-linecap:round;stroke-linejoin:round;stroke-miterlimit:10;" d="M415.645,335.304
						h-31.803l0.615-0.978c2.776-4.405,3.971-9.547,3.947-14.749v-0.06c0-6.674,5.745-11.997,12.552-11.285
						c5.117,0.531,9.33,4.622,10.018,9.716c0.085,0.591,0.109,1.171,0.109,1.738c-0.085,5.033,1.014,10.018,3.705,14.266
						L415.645,335.304z"/>
					<path style="fill:none;stroke:#263238;stroke-linecap:round;stroke-linejoin:round;stroke-miterlimit:10;" d="M397.169,307.927
						c-1.422-1.422-1.422-3.727,0-5.149c1.422-1.422,3.727-1.422,5.149,0c1.422,1.422,1.422,3.727,0,5.149"/>
					<path style="fill:none;stroke:#263238;stroke-linecap:round;stroke-linejoin:round;stroke-miterlimit:10;" d="M416.456,338.57
						H383.03c-0.746,0-1.352-0.605-1.352-1.352v-0.559c0-0.746,0.605-1.352,1.352-1.352h33.425c0.746,0,1.352,0.605,1.352,1.352
						v0.559C417.808,337.965,417.202,338.57,416.456,338.57z"/>
					
						<circle style="fill:none;stroke:#263238;stroke-linecap:round;stroke-linejoin:round;stroke-miterlimit:10;" cx="399.743" cy="344.052" r="2.776"/>
				</g>
				<path style="fill:none;stroke:#263238;stroke-linecap:round;stroke-linejoin:round;stroke-miterlimit:10;" d="M430.14,326.68
					c0,5.09-1.25,9.9-3.46,14.12h-7.01c-1.18,0-2.14,0.96-2.14,2.14v8.4c-5,3.61-11.15,5.74-17.79,5.74
					c-10.08,0-19.02-4.91-24.55-12.48c-3.68-5.02-5.85-11.21-5.85-17.92c0-16.78,13.62-30.4,30.4-30.4
					C416.53,296.28,430.14,309.9,430.14,326.68z"/>
			</g>
			<g>
				<path style="fill:none;stroke:#263238;stroke-linecap:round;stroke-linejoin:round;stroke-miterlimit:10;" d="M430.223,355.633
					h-10.553c-1.182,0-2.14-0.958-2.14-2.14v-10.553c0-1.182,0.958-2.14,2.14-2.14h10.553c1.182,0,2.14,0.958,2.14,2.14v10.553
					C432.363,354.675,431.404,355.633,430.223,355.633z"/>
				<polygon style="fill:#263238;" points="428.634,347.375 425.787,347.375 425.787,344.528 424.105,344.528 424.105,347.375 
					421.258,347.375 421.258,349.057 424.105,349.057 424.105,351.904 425.787,351.904 425.787,349.057 428.634,349.057 				"/>
			</g>
		</g>
	</g>
</g>
<g id="Interface">
	<g>
		<defs>
			<path id="XMLID_332_" d="M425.89,78.11v218.3c0,3.84-3.11,6.95-6.95,6.95H194.71c-3.84,0-6.95-3.11-6.95-6.95V78.11
				c0-3.84,3.11-6.95,6.95-6.95h224.23C422.78,71.16,425.89,74.27,425.89,78.11z"/>
		</defs>
		<use xlink:href="#XMLID_332_"  style="overflow:visible;fill:#FFFFFF;"/>
		<clipPath id="XMLID_00000168820341252968719870000001580087898596432294_">
			<use xlink:href="#XMLID_332_"  style="overflow:visible;"/>
		</clipPath>
		<g style="clip-path:url(#XMLID_00000168820341252968719870000001580087898596432294_);">
			<path style="fill:#92E3A9;stroke:#263238;stroke-linecap:round;stroke-linejoin:round;stroke-miterlimit:10;" d="
				M389.017,285.018h-55.196c-7.189,0-13.018-5.828-13.018-13.018l0,0c0-7.189,5.828-13.018,13.018-13.018h55.196
				c7.189,0,13.018,5.828,13.018,13.018l0,0C402.035,279.189,396.207,285.018,389.017,285.018z"/>
			<g>
				<path style="fill:#263238;" d="M347.288,278.376h-2.108l-0.36-2.413h-2.565l-0.36,2.413h-1.919l2.128-13.298h3.059
					L347.288,278.376z M342.52,274.158h2.014l-0.988-6.725h-0.038L342.52,274.158z"/>
				<path style="fill:#263238;" d="M354.302,273.417v1.768c0,2.127-1.064,3.343-3.116,3.343c-2.052,0-3.115-1.216-3.115-3.343
					v-6.915c0-2.128,1.064-3.344,3.115-3.344c2.052,0,3.116,1.216,3.116,3.344v1.291h-1.976v-1.424c0-0.95-0.418-1.311-1.083-1.311
					c-0.665,0-1.083,0.361-1.083,1.311v7.181c0,0.949,0.418,1.292,1.083,1.292c0.665,0,1.083-0.343,1.083-1.292v-1.9H354.302z"/>
				<path style="fill:#263238;" d="M361.637,273.417v1.768c0,2.127-1.064,3.343-3.116,3.343c-2.052,0-3.115-1.216-3.115-3.343
					v-6.915c0-2.128,1.063-3.344,3.115-3.344c2.052,0,3.116,1.216,3.116,3.344v1.291h-1.976v-1.424c0-0.95-0.418-1.311-1.083-1.311
					c-0.665,0-1.083,0.361-1.083,1.311v7.181c0,0.949,0.418,1.292,1.083,1.292c0.665,0,1.083-0.343,1.083-1.292v-1.9H361.637z"/>
				<path style="fill:#263238;" d="M365.001,270.682h2.868v1.9h-2.868v3.894h3.609v1.9h-5.699v-13.298h5.699v1.899h-3.609V270.682z"
					/>
				<path style="fill:#263238;" d="M376.099,268.364v1.729c0,2.128-1.026,3.287-3.115,3.287h-0.988v4.996h-2.09v-13.298h3.078
					C375.072,265.078,376.099,266.236,376.099,268.364z M371.995,266.978v4.502h0.988c0.664,0,1.025-0.304,1.025-1.254v-1.994
					c0-0.95-0.361-1.254-1.025-1.254H371.995z"/>
				<path style="fill:#263238;" d="M376.462,265.078h6.459v1.899h-2.185v11.398h-2.09v-11.398h-2.185V265.078z"/>
			</g>
		</g>
		<g style="clip-path:url(#XMLID_00000168820341252968719870000001580087898596432294_);">
			<g>
				<defs>
					<path id="XMLID_335_" d="M279.831,285.018h-55.196c-7.189,0-13.018-5.828-13.018-13.018l0,0
						c0-7.189,5.828-13.018,13.018-13.018h55.196c7.189,0,13.018,5.828,13.018,13.018l0,0
						C292.848,279.189,287.02,285.018,279.831,285.018z"/>
				</defs>
				<use xlink:href="#XMLID_335_"  style="overflow:visible;fill:#92E3A9;"/>
				<clipPath id="XMLID_00000001652840242802665620000006879599448478116752_">
					<use xlink:href="#XMLID_335_"  style="overflow:visible;"/>
				</clipPath>
				<path style="opacity:0.6;clip-path:url(#XMLID_00000001652840242802665620000006879599448478116752_);fill:#FFFFFF;" d="
					M279.831,285.018h-55.196c-7.189,0-13.018-5.828-13.018-13.018l0,0c0-7.189,5.828-13.018,13.018-13.018h55.196
					c7.189,0,13.018,5.828,13.018,13.018l0,0C292.848,279.189,287.02,285.018,279.831,285.018z"/>
				
					<use xlink:href="#XMLID_335_"  style="overflow:visible;fill:none;stroke:#263238;stroke-linecap:round;stroke-linejoin:round;stroke-miterlimit:10;"/>
			</g>
			<g>
				<path style="fill:#263238;" d="M229.372,265.078h3.306c2.09,0,3.115,1.158,3.115,3.286v6.725c0,2.128-1.025,3.287-3.115,3.287
					h-3.306V265.078z M231.462,266.978v9.498h1.178c0.665,0,1.064-0.342,1.064-1.291v-6.915c0-0.95-0.398-1.292-1.064-1.292H231.462
					z"/>
				<path style="fill:#263238;" d="M239.215,270.682h2.868v1.9h-2.868v3.894h3.609v1.9h-5.699v-13.298h5.699v1.899h-3.609V270.682z"
					/>
				<path style="fill:#263238;" d="M250.18,273.417v1.768c0,2.127-1.064,3.343-3.116,3.343c-2.052,0-3.115-1.216-3.115-3.343v-6.915
					c0-2.128,1.063-3.344,3.115-3.344c2.052,0,3.116,1.216,3.116,3.344v1.291h-1.976v-1.424c0-0.95-0.418-1.311-1.083-1.311
					s-1.083,0.361-1.083,1.311v7.181c0,0.949,0.418,1.292,1.083,1.292s1.083-0.343,1.083-1.292v-1.9H250.18z"/>
				<path style="fill:#263238;" d="M251.454,265.078h2.09v11.397h3.438v1.9h-5.528V265.078z"/>
				<path style="fill:#263238;" d="M257.896,265.078h2.09v13.298h-2.09V265.078z"/>
				<path style="fill:#263238;" d="M263.406,268.744h-0.037v9.632h-1.881v-13.298h2.621l2.109,7.959h0.037v-7.959h1.862v13.298
					h-2.147L263.406,268.744z"/>
				<path style="fill:#263238;" d="M271.711,270.682h2.868v1.9h-2.868v3.894h3.609v1.9h-5.699v-13.298h5.699v1.899h-3.609V270.682z"
					/>
			</g>
		</g>
		<g style="clip-path:url(#XMLID_00000168820341252968719870000001580087898596432294_);">
			<path style="fill:#92E3A9;stroke:#263238;stroke-linecap:round;stroke-linejoin:round;stroke-miterlimit:10;" d="
				M361.035,175.949c0,11.18-3.381,21.564-9.183,30.2c-9.738,14.478-26.272,24.009-45.026,24.009
				c-17.984,0-33.929-8.76-43.783-22.252c-6.556-8.959-10.426-20.006-10.426-31.957c0-29.935,24.274-54.209,54.209-54.209
				S361.035,146.014,361.035,175.949z"/>
			<g>
				<path style="fill:#757575;stroke:#263238;stroke-linecap:round;stroke-linejoin:round;stroke-miterlimit:10;" d="
					M351.853,206.149c-9.738,14.478-26.272,24.009-45.026,24.009c-17.984,0-33.929-8.76-43.783-22.252
					c0.315-0.539,0.638-1.077,0.97-1.608c2.03-3.307,14.238-8.545,31.551-10.426c3.704-0.414,7.641-0.663,11.76-0.704
					c4.351-0.05,8.636,0.232,12.73,0.746C335.079,197.787,347.593,202.767,351.853,206.149z"/>
				<path style="fill:#FFFFFF;stroke:#263238;stroke-linecap:round;stroke-linejoin:round;stroke-miterlimit:10;" d="
					M321.299,197.191c0,0-3.8,7.742-13.54,7.751c-7.975,0-13.791-6.918-13.791-6.918c2.805-2.518,2.975-7.178,2.563-10.843
					c-0.331-2.993-1.048-5.323-1.048-5.323h23.855c-1.452,4.767-1.398,8.191-0.833,10.574
					C319.337,195.937,321.299,197.191,321.299,197.191z"/>
				<path style="fill:#263238;" d="M318.503,192.433c-17.242,4.516-20.665-5.332-20.665-5.332l-1.308,0.081
					c-0.331-2.993-1.048-5.323-1.048-5.323h23.855C317.885,186.626,317.939,190.049,318.503,192.433z"/>
				<g>
					<g>
						<path style="fill:#FFFFFF;stroke:#263238;stroke-linecap:round;stroke-linejoin:round;stroke-miterlimit:10;" d="
							M324.531,165.109c0,0,1.922-2.088,2.866-1.401c0.944,0.687,2.059,2.632,1.544,4.405c-0.515,1.773-2.746,4.863-2.917,6.665
							c-0.172,1.802-1.329,3.843-2.595,2.651C322.162,176.236,324.531,165.109,324.531,165.109z"/>
						<path style="fill:#FFFFFF;stroke:#263238;stroke-linecap:round;stroke-linejoin:round;stroke-miterlimit:10;" d="
							M290.289,165.109c0,0-1.922-2.088-2.866-1.401c-0.944,0.687-2.059,2.632-1.544,4.405c0.515,1.773,2.746,4.863,2.917,6.665
							c0.172,1.802,1.328,3.843,2.595,2.651C292.658,176.236,290.289,165.109,290.289,165.109z"/>
					</g>
					<path style="fill:#FFFFFF;stroke:#263238;stroke-linecap:round;stroke-linejoin:round;stroke-miterlimit:10;" d="
						M307.004,140.978c24.163,0,18.419,32.182,13.972,42.514c-1.561,3.628-9.654,8.39-13.566,8.39
						c-3.639,0-11.967-5.691-13.443-9.099C289.469,172.4,283.973,140.978,307.004,140.978z"/>
					<g>
						<path style="fill:none;stroke:#263238;stroke-linecap:round;stroke-linejoin:round;stroke-miterlimit:10;" d="M311.1,160.848
							c0,0,6.293-1.945,8.238,1.945"/>
						<path style="fill:#263238;" d="M315.759,166.139c0,0.743-0.377,1.344-0.842,1.344c-0.465,0-0.842-0.602-0.842-1.344
							c0-0.742,0.377-1.344,0.842-1.344C315.382,164.795,315.759,165.397,315.759,166.139z"/>
						<path style="fill:none;stroke:#263238;stroke-linecap:round;stroke-linejoin:round;stroke-miterlimit:10;" d="M303.72,160.848
							c0,0-6.293-1.945-8.238,1.945"/>
						<path style="fill:#263238;" d="M299.061,166.139c0,0.743,0.377,1.344,0.842,1.344c0.465,0,0.842-0.602,0.842-1.344
							c0-0.742-0.377-1.344-0.842-1.344C299.439,164.795,299.061,165.397,299.061,166.139z"/>
					</g>
					<path style="fill:#263238;" d="M317.006,149.206c0,0-8.667,3.261-18.62,0c0,0-3.261-0.191-4.548,1.449
						c-1.287,1.64,0,6.703,0.343,8.762c0.343,2.059-2.832,3.49-2.403,8.695l-1.228,1.796c0,0-3.409-8.376-2.551-15.584
						c0.858-7.208,5.409-10.01,5.409-10.01s2.074-6.225,14.233-6.178c13.104,0.05,14.427,7.144,14.427,7.144
						s8.885,5.925,2.313,25.232l-1.426-2.4c0,0,0.693-3.89-1.659-7.322c-1.145-1.671,0.687-6.693,0.257-9.267
						C321.125,148.949,317.006,149.206,317.006,149.206z"/>
					<path style="fill:none;stroke:#263238;stroke-linecap:round;stroke-linejoin:round;stroke-miterlimit:10;" d="M308.847,164.795
						c0,0,0.077,5.882,1.616,7.79c0.792,0.982-0.754,3.106-3.13,3.481"/>
					<path style="fill:#FFFFFF;stroke:#263238;stroke-linecap:round;stroke-linejoin:round;stroke-miterlimit:10;" d="
						M302.119,179.482c0,0,0.592,2.179,2.247,2.888s6.677,0.414,7.622-0.177c0.945-0.591,1.418-2.521,1.418-2.521"/>
					<path style="fill:none;stroke:#263238;stroke-linecap:round;stroke-linejoin:round;stroke-miterlimit:10;" d="M301.589,179.356
						c0,0,5,1.418,12.485,0"/>
					<path style="fill:#263238;" d="M319.337,149.46c0,0-2.701,4.009-11.574,4.865c0,0,0.898-0.737,1.57-2.248
						c0,0-3.618,3.085-9.429,2.248s-9.009,3.679-9.009,3.679l-1.505,6.791c0,0-5.314-6.038-1.528-15.634l-1.361,1.129
						c0,0,1.505-12.888,16.966-13.358l-1.877-1.129c0,0,15.436-3.292,21.467,6.867c0,0,5.373,1.017,6.69,10.292l-1.505-0.979
						c0,0,2.389,7.71-2.569,14.156C325.672,166.139,319.337,155.934,319.337,149.46z"/>
				</g>
			</g>
		</g>
		<path style="opacity:0.5;clip-path:url(#XMLID_00000168820341252968719870000001580087898596432294_);fill:#263238;" d="
			M365.756,105.519H247.897c-1.664,0-3.012-1.349-3.012-3.012l0,0c0-1.664,1.349-3.012,3.012-3.012h117.859
			c1.664,0,3.012,1.349,3.012,3.012l0,0C368.768,104.171,367.42,105.519,365.756,105.519z"/>
		<g style="opacity:0.4;clip-path:url(#XMLID_00000168820341252968719870000001580087898596432294_);">
			<path d="M357.35,238.659H256.303c-0.655,0-1.187-0.531-1.187-1.187l0,0c0-0.655,0.531-1.187,1.187-1.187H357.35
				c0.655,0,1.187,0.531,1.187,1.187l0,0C358.536,238.128,358.005,238.659,357.35,238.659z"/>
			<path d="M347.35,245h-81.047c-0.655,0-1.187-0.531-1.187-1.187l0,0c0-0.656,0.531-1.187,1.187-1.187h81.047
				c0.655,0,1.187,0.531,1.187,1.187l0,0C348.536,244.469,348.005,245,347.35,245z"/>
		</g>
		<g style="clip-path:url(#XMLID_00000168820341252968719870000001580087898596432294_);">
			<path style="fill:#263238;stroke:#FFFFFF;stroke-linecap:round;stroke-linejoin:round;stroke-miterlimit:10;" d="
				M360.191,227.571h-16.846c-2.652,0-4.803-2.15-4.803-4.803v-16.846c0-2.652,2.15-4.803,4.803-4.803h16.846
				c2.652,0,4.803,2.15,4.803,4.803v16.846C364.994,225.421,362.844,227.571,360.191,227.571z"/>
			<polygon style="fill:#FFFFFF;" points="358.345,212.846 353.269,212.846 353.269,207.769 350.269,207.769 350.269,212.846 
				345.192,212.846 345.192,215.846 350.269,215.846 350.269,220.922 353.269,220.922 353.269,215.846 358.345,215.846 			"/>
		</g>
		<path style="opacity:0.3;clip-path:url(#XMLID_00000168820341252968719870000001580087898596432294_);" d="M419.209,82.264
			c0,2.695-2.185,4.879-4.879,4.879c-2.695,0-4.879-2.185-4.879-4.879c0-2.695,2.185-4.879,4.879-4.879
			C417.024,77.385,419.209,79.569,419.209,82.264z"/>
		<path style="opacity:0.3;clip-path:url(#XMLID_00000168820341252968719870000001580087898596432294_);" d="M405.209,82.264
			c0,2.695-2.185,4.879-4.879,4.879c-2.695,0-4.879-2.185-4.879-4.879c0-2.695,2.185-4.879,4.879-4.879
			C403.024,77.385,405.209,79.569,405.209,82.264z"/>
		<path style="opacity:0.3;clip-path:url(#XMLID_00000168820341252968719870000001580087898596432294_);fill-opacity:0.7;" d="
			M326.46,278.97c0,0,6.26,1.35,6.48,5.91c0.48,9.8,0.46,10.1-6.42,9.23c0,0-4.16,5.71-14.24,4.07c0,0-1.32,1.98-3.45,5.18h-17.85
			c4.95-5.91,8.93-10.8,10.67-13.12c6.39-8.51,36.25-21.05,36.25-21.05S337.8,272.47,326.46,278.97z"/>
		
			<use xlink:href="#XMLID_332_"  style="overflow:visible;fill:none;stroke:#263238;stroke-linecap:round;stroke-linejoin:round;stroke-miterlimit:10;"/>
	</g>
</g>
<g id="Character">
	<g>
		<path style="fill:#FFFFFF;stroke:#263238;stroke-linecap:round;stroke-linejoin:round;stroke-miterlimit:10;" d="M101.209,444.143
			c0,0,1.764-12.813,3.074-18.088c1.31-5.275,9.046-25.718,10.666-37.155l-19.74-15.725c0,0-7.44,38.363-7.44,44.385l-4.066,13.11"
			/>
		<g>
			<defs>
				<path id="XMLID_3_" d="M120.78,403.374c-4.13-3.15-8.21-6.48-12.22-9.992c-5.81-5.044-11.47-10.439-16.91-16.147
					c1.25-5.877,2.89-12.72,4.9-18.91c2.31-7.156,6.96-11.416,11.12-13.89c0.07-0.048,0.14-0.085,0.2-0.121
					c0.32-0.181,0.63-0.362,0.93-0.519c0.58-0.314,1.14-0.591,1.68-0.833c3.17-1.424,5.56-1.822,5.56-1.822l4.25,55.874
					L120.78,403.374z"/>
			</defs>
			<use xlink:href="#XMLID_3_"  style="overflow:visible;fill:#92E3A9;"/>
			<clipPath id="XMLID_00000141441103135470043560000009431769755386302904_">
				<use xlink:href="#XMLID_3_"  style="overflow:visible;"/>
			</clipPath>
			<path style="opacity:0.3;clip-path:url(#XMLID_00000141441103135470043560000009431769755386302904_);fill-opacity:0.7;" d="
				M120.78,403.374c-4.13-3.15-8.21-6.48-12.22-9.992c-5.81-5.044-11.47-10.439-16.91-16.147c1.25-5.877,2.89-12.72,4.9-18.91
				c2.31-7.156,6.96-11.416,11.12-13.89c0.07-0.048,0.14-0.085,0.2-0.121c0.32-0.181,0.63-0.362,0.93-0.519
				c0.58-0.314,1.14-0.591,1.68-0.833c3.17-1.424,5.56-1.822,5.56-1.822l4.25,55.874L120.78,403.374z"/>
			
				<use xlink:href="#XMLID_3_"  style="overflow:visible;fill:none;stroke:#263238;stroke-linecap:round;stroke-linejoin:round;stroke-miterlimit:10;"/>
		</g>
		<path style="fill:none;stroke:#263238;stroke-linecap:round;stroke-linejoin:round;stroke-miterlimit:10;" d="M100.212,372.321
			c0,0,2.297,15.628,12.856,21.593"/>
		<path style="fill:#92E3A9;" d="M206.08,384.97c0,8.03-6.51,40.36-6.51,40.36l-0.22,28.43c0,0-13.47,4.47-35.21,4.47
			c-26.64,0-38.44-7.13-39.48-7.8c-0.03-0.02-0.05-0.03-0.08-0.05l3.96-19.71c0,0-20.97-49.56-21.41-51.26
			c-0.65-2.52-1.21-5.07-1.66-7.61c-1.12-6.27-1.53-12.46-0.87-17.83c0.43-3.64,1.36-6.92,2.91-9.6c0.11-0.2,0.23-0.4,0.36-0.6
			c0.55-0.88,1.18-1.7,1.89-2.43c0.06-0.07,0.12-0.13,0.19-0.2c0.65-0.65,1.35-1.26,2.11-1.83c0,0,0.01,0,0.01-0.01
			c0.25-0.19,0.51-0.37,0.77-0.55c0.21-0.15,0.43-0.3,0.65-0.44c0.14-0.09,0.28-0.19,0.42-0.27c0.18-0.12,0.36-0.23,0.55-0.34
			c0.28-0.17,0.56-0.33,0.85-0.49c15.79-8.75,45.18-7.4,45.18-7.4c0.29-0.1,0.61-0.16,0.96-0.19c0.03-0.01,0.05-0.01,0.07-0.01
			c0.53-0.04,1.12,0.01,1.75,0.14c7.32,1.42,20.72,13.37,30.59,26.97c3.04,4.18,5.74,8.52,7.82,12.76
			C204.41,375.01,206.08,380.36,206.08,384.97z"/>
		<path style="opacity:0.3;fill-opacity:0.7;" d="M205.9,382.26c-8.02-2.28-14.83-7.35-14.83-7.35c-7.09,1.33-13.93-5.73-15.71-9.51
			l23.26-1.5c1.13,1.86,2.15,3.73,3.06,5.58C203.89,373.96,205.41,378.32,205.9,382.26z"/>
		<path style="opacity:0.3;fill-opacity:0.7;" d="M133.31,435.76c0,0,5.23,22.38-8.65,14.67c-0.03-0.02-0.05-0.03-0.08-0.05
			l3.96-19.71c0,0-20.97-49.56-21.41-51.26c-0.65-2.52-1.21-5.07-1.66-7.61c-1.12-6.27-1.53-12.46-0.87-17.83
			c0.43-3.64,1.36-6.92,2.91-9.6c0.11-0.2,0.23-0.4,0.36-0.6c0.55-0.88,1.18-1.7,1.89-2.43c0.06-0.07,0.12-0.13,0.19-0.2
			c0.65-0.65,1.35-1.26,2.11-1.83c0,0,0.01,0,0.01-0.01c0.25-0.19,0.51-0.37,0.77-0.55c0.21-0.15,0.43-0.3,0.65-0.44
			c0.14-0.09,0.28-0.19,0.42-0.27c0.18-0.12,0.36-0.23,0.55-0.34c0.28-0.17,0.56-0.33,0.85-0.49c14.53,1.12,30.68,7.98,33.8,22.12
			c0,0-1.32,21.63-6.07,29.54c-2.95,4.93-3.95,27.95,10.64,21.29C149.11,433.18,133.31,435.76,133.31,435.76z"/>
		<path id="XMLID_2_" style="fill:none;stroke:#263238;stroke-linecap:round;stroke-linejoin:round;stroke-miterlimit:10;" d="
			M124.582,450.385l3.956-19.714c0,0-20.968-49.56-21.409-51.26c-0.65-2.52-1.21-5.07-1.66-7.61c-1.12-6.27-1.53-12.46-0.87-17.83
			c0.43-3.64,1.36-6.92,2.91-9.6c0.11-0.2,0.23-0.4,0.36-0.6c0.55-0.88,1.18-1.7,1.89-2.43c0.06-0.07,0.12-0.13,0.19-0.2
			c0.65-0.65,1.35-1.26,2.11-1.83c0,0,0.01,0,0.01-0.01c14.56-11.04,48.42-9.49,48.42-9.49c0.29-0.1,0.61-0.16,0.96-0.19
			c0.03-0.01,0.05-0.01,0.07-0.01c0.53-0.04,1.12,0.01,1.75,0.14c7.32,1.42,20.72,13.37,30.59,26.97c3.04,4.18,5.74,8.52,7.82,12.76
			c2.73,5.53,4.4,10.88,4.4,15.49c0,8.03-6.51,40.36-6.51,40.36l-0.218,28.428"/>
		<g>
			<path style="fill:#FFFFFF;stroke:#263238;stroke-linecap:round;stroke-linejoin:round;stroke-miterlimit:10;" d="
				M175.141,284.558c-1.196-1.479-6.497-4.964-6.497-4.964c-1.056-6.915-1.625-16.139-8.782-23.281
				c-9.789-9.768-32.38-6.687-39.778,7.888c-14.776,29.109,13.15,56.527,47.312,50.733c2.91-0.493,4.873-3.345,5.27-16.878
				l0.915-1.884c0,0-0.944-3.228-1.235-4.856C174.071,289.633,176.019,285.643,175.141,284.558z"/>
			<path style="fill:none;stroke:#263238;stroke-linecap:round;stroke-linejoin:round;stroke-miterlimit:10;" d="M166.736,268.753
				c0,0-1.289,1.998-1.979,4.578"/>
			<path style="fill:none;stroke:#263238;stroke-linecap:round;stroke-linejoin:round;stroke-miterlimit:10;" d="M167.256,281.77
				c0,0,2.384,1.44,3.464,5.976"/>
			<path style="fill:none;stroke:#263238;stroke-linecap:round;stroke-linejoin:round;stroke-miterlimit:10;" d="M173.266,296.821
				c0,0-0.927,1.502-4.792,1.064"/>
			<path style="fill:#263238;" d="M163.123,252.495c0,0,9.005-3.703,6.399,13.893c-2.606,17.596-15.609,38.535-26.578,34.595
				l0.184-1.572c0,0,9.605,3.793,17.685-12.902c8.08-16.695,7.407-31.958,2.784-29.313L163.123,252.495z"/>
			<path style="fill:#263238;" d="M162.305,279.78c0,0-3.436,9.073-6.183,11.958c0,0-1.114-3.473-3.765-3.494
				c-2.65-0.021-5.022-7.086-5.022-7.086L162.305,279.78z"/>
			<path style="fill:#263238;" d="M158.605,280.197c0,0-6.315,15.413-1.684,27.311c4.631,11.898,17.682,20.841,17.682,20.841
				l-4.211-1.909c0,0-11.079-7.29-14.949-19.913c-3.871-12.624-0.166-24.504-0.166-24.504L158.605,280.197z"/>
			<path style="fill:#263238;" d="M106.533,259.693c0,0-10.575,4.346-9.962,19.915c0.614,15.57,11.265,29.184,13.415,49.087
				c1.87,17.308-16.967,32.55,2.111,52.776c0,0-8.371-13.002-5.815-27.539c2.556-14.537,11.295-12.45,4.812-36.118
				c-6.483-23.668-20.266-37.677-6.029-52.76L106.533,259.693z"/>
			<path style="fill:#263238;" d="M167.932,324.353c-19.264-10.741-14.025-33.669-14.025-33.669
				c14.511-10.672,16.44-30.714,13.784-35.832c-2.656-5.119-8.457-3.393-8.457-3.393c-23.093-10.984-51.514-0.727-56.912,15.436
				c-6.917,20.711,4.895,36.629,10.668,54.03c5.184,15.624-6.816,18.454-6.778,34.016c-2.276,28.962,27.469,41.113,27.469,41.113
				s-2.571-1.385-2.571-4.549c0-3.165,8.11-3.165,13.451-12.096c4.428-7.405,4.778-25.48,6.261-34.219
				c1.95-7.911,4.498-14.23,9.667-15.384c13.625-3.042,25.37,10.179,25.37,10.179S187.195,335.094,167.932,324.353z"/>
			<g style="opacity:0.3;">
				<path style="fill:none;stroke:#FFFFFF;stroke-linecap:round;stroke-linejoin:round;stroke-miterlimit:10;" d="M162.305,254.626
					c2.101,3.692-13.659,23.209-19.361,40.088c-5.702,16.879,0.101,26.757,0.101,26.757"/>
				<path style="fill:none;stroke:#FFFFFF;stroke-linecap:round;stroke-linejoin:round;stroke-miterlimit:10;" d="M126.956,259.693
					c0,0-17.143,14.768-7.385,41.774c9.758,27.006,5.436,45.635,2.191,60.189c-3.246,14.553-0.608,19.564,3.348,23.521"/>
				<path style="fill:none;stroke:#FFFFFF;stroke-linecap:round;stroke-linejoin:round;stroke-miterlimit:10;" d="M148.582,304.273
					c0,0,9.196,10.36,2.884,25.324c-6.312,14.964-9.741,25.671-12.115,37.328c-2.374,11.657-7.648,14.546-7.648,14.546"/>
				<path style="fill:none;stroke:#FFFFFF;stroke-linecap:round;stroke-linejoin:round;stroke-miterlimit:10;" d="M149.11,252.17
					c0,0-9.494-0.445-13.978,11.687c-4.484,12.132-0.264,33.095-1.846,40.416"/>
				<path style="fill:none;stroke:#FFFFFF;stroke-linecap:round;stroke-linejoin:round;stroke-miterlimit:10;" d="M124.582,252.17
					c0,0-13.925,0.578-18.367,19.83c-4.442,19.252,8.932,35.429,10.353,50.434c1.421,15.005-7.018,28.887-6.491,39.221
					c0.528,10.334,6.491,15.808,6.491,15.808"/>
			</g>
		</g>
		<path style="fill:#FFFFFF;stroke:#263238;stroke-linecap:round;stroke-linejoin:round;stroke-miterlimit:10;" d="M211.615,331.357
			c0,0,30.461,2.27,34.813,2.27c4.352,0,44.703-39.954,51.824-47.867c7.121-7.913,37.978-17.756,37.978-17.756
			s-0.396,3.264-12.264,8.73c0,0,6.118,1.899,5.934,6.458c-0.396,9.809-0.445,10.106-7.22,8.623c0,0-4.648,5.328-14.538,2.801
			c0,0-23.736,29.517-34.22,42.968c-10.483,13.451-14.835,17.963-18.791,19.465c-3.956,1.502-52.22,4.608-52.22,4.608
			L211.615,331.357z"/>
		<path style="fill:#92E3A9;stroke:#263238;stroke-linecap:round;stroke-linejoin:round;stroke-miterlimit:10;" d="M173.266,367.253
			c15.8,9.89,42.305-2.374,42.305-2.374s4.747-21.518,0-35.287c0,0-33.236-6.475-51.431-0.232c-1.88,0.645-3.278,2.113-4.194,4.132"
			/>
		<path style="fill:none;stroke:#263238;stroke-linecap:round;stroke-linejoin:round;stroke-miterlimit:10;" d="M211.371,328.874
			c0,0,4.332,15.027,0.64,33.752"/>
		<path style="fill:none;stroke:#263238;stroke-linecap:round;stroke-linejoin:round;stroke-miterlimit:10;" d="M206.077,342.714
			c0,0-10.945,17.934-25.055,20.571"/>
		<path style="fill:none;stroke:#263238;stroke-linecap:round;stroke-linejoin:round;stroke-miterlimit:10;" d="M195.852,370.571
			c0,0-7.313,8.67-16.28,8.67"/>
		<path style="fill:none;stroke:#263238;stroke-linecap:round;stroke-linejoin:round;stroke-miterlimit:10;" d="M188.81,371.11
			c0,0,1.2,2.72,0.01,5.29l-0.01,0.01c0,0,1.24,5.21-1.1,12.72c-1.72,5.54-1.64,21.25-2.44,32.3c0,0,2.538,13.328,2.441,33.372"/>
		<path style="fill:none;stroke:#263238;stroke-linecap:round;stroke-linejoin:round;stroke-miterlimit:10;" d="M171.9,327.529
			c0,0,13.605-0.903,21.649,8.592"/>
		<path style="fill:none;stroke:#263238;stroke-linecap:round;stroke-linejoin:round;stroke-miterlimit:10;" d="M327.429,285.879
			c0,0-1.978,3.462-4.352,4.253c0,0-0.173,3.612-6.218,4.823"/>
		<path style="fill:none;stroke:#263238;stroke-linecap:round;stroke-linejoin:round;stroke-miterlimit:10;" d="M325.759,288.155
			c0,0,1.026,0.593,1.224,1.483"/>
		<path style="fill:none;stroke:#263238;stroke-linecap:round;stroke-linejoin:round;stroke-miterlimit:10;" d="M128.538,430.67
			c0,0,14.064,18.33,27.471,11.736"/>
		<path style="fill:none;stroke:#263238;stroke-linecap:round;stroke-linejoin:round;stroke-miterlimit:10;" d="M164.14,392.71
			c0,0-9.492,29.125-30.855,27.807"/>
	</g>
</g>
</svg>
